<?xml version="1.0"?>
<svg xmlns="http://www.w3.org/2000/svg" xmlns:xlink="http://www.w3.org/1999/xlink" xmlns:svgjs="http://svgjs.com/svgjs" version="1.1" width="512" height="512" x="0" y="0" viewBox="0 0 98 98" style="enable-background:new 0 0 512 512" xml:space="preserve" class=""><g transform="matrix(1,0,0,1,2.1316282072803006e-14,2.1316282072803006e-14)">
<style xmlns="http://www.w3.org/2000/svg" type="text/css">
	.st0{fill:url(#SVGID_1_);}
</style>
<linearGradient xmlns="http://www.w3.org/2000/svg" id="SVGID_1_" gradientUnits="userSpaceOnUse" x1="49" y1="12.3" x2="49" y2="89.7"><stop stop-opacity="1" stop-color="#ffffff" offset="0"/><stop stop-opacity="1" stop-color="#ff94c2" offset="1"/></linearGradient>
<path xmlns="http://www.w3.org/2000/svg" class="st0" d="M69,48.9L33.2,13.2C32,12,30.1,12,29,13.2c-1.2,1.2-1.2,3.1,0,4.2L62.7,51L29,84.6c-1.2,1.2-1.2,3.1,0,4.2  c0.6,0.6,1.4,0.9,2.1,0.9c0.8,0,1.5-0.3,2.1-0.9L69,53.1c0.6-0.6,0.9-1.3,0.9-2.1S69.6,49.4,69,48.9z" fill="#ffffff" data-original="#000000" style=""/>
</g></svg>
